<svg xmlns="http://www.w3.org/2000/svg" xmlns:xlink="http://www.w3.org/1999/xlink" width="256" zoomAndPan="magnify" viewBox="0 0 192 191.999996" height="256" preserveAspectRatio="xMidYMid meet" version="1.0"><defs><clipPath id="2b0b6fc119"><path d="M 48 34 L 163.496094 34 L 163.496094 177.539062 L 48 177.539062 Z M 48 34 " clip-rule="nonzero"/></clipPath><clipPath id="69084f832f"><path d="M 28.496094 14.789062 L 144 14.789062 L 144 158 L 28.496094 158 Z M 28.496094 14.789062 " clip-rule="nonzero"/></clipPath></defs><g clip-path="url(#2b0b6fc119)"><path fill="#1cabb0" d="M 163.503906 44.320312 L 163.503906 167.222656 C 163.503906 172.703125 159.046875 177.160156 153.570312 177.160156 L 58.675781 177.160156 C 53.195312 177.160156 48.738281 172.703125 48.738281 167.222656 L 48.738281 74.734375 L 75.039062 74.734375 C 82.789062 74.734375 89.09375 68.433594 89.09375 60.683594 L 89.09375 34.382812 L 153.570312 34.382812 C 159.046875 34.382812 163.503906 38.839844 163.503906 44.320312 " fill-opacity="1" fill-rule="nonzero"/></g><g clip-path="url(#69084f832f)"><path fill="#737373" d="M 143.339844 30.261719 L 87.03125 30.261719 C 86.972656 30.261719 86.910156 30.265625 86.851562 30.273438 C 86.832031 30.273438 86.8125 30.277344 86.792969 30.28125 C 86.773438 30.28125 86.75 30.285156 86.726562 30.285156 C 86.695312 30.292969 86.664062 30.296875 86.632812 30.304688 C 86.601562 30.308594 86.574219 30.3125 86.546875 30.324219 C 86.476562 30.339844 86.410156 30.359375 86.347656 30.382812 C 86.316406 30.390625 86.285156 30.402344 86.257812 30.414062 C 86.1875 30.445312 86.117188 30.476562 86.050781 30.511719 C 85.996094 30.542969 85.945312 30.574219 85.894531 30.605469 C 85.78125 30.683594 85.671875 30.769531 85.578125 30.867188 L 45.222656 71.222656 C 45.050781 71.394531 44.914062 71.589844 44.8125 71.804688 C 44.796875 71.835938 44.785156 71.867188 44.773438 71.894531 C 44.734375 71.988281 44.703125 72.085938 44.679688 72.183594 C 44.664062 72.234375 44.65625 72.292969 44.648438 72.34375 C 44.636719 72.394531 44.632812 72.445312 44.625 72.496094 C 44.621094 72.554688 44.617188 72.617188 44.617188 72.675781 L 44.617188 157.609375 L 38.429688 157.609375 C 32.953125 157.609375 28.496094 153.152344 28.496094 147.671875 L 28.496094 24.765625 C 28.496094 19.289062 32.953125 14.832031 38.429688 14.832031 L 133.324219 14.832031 C 138.804688 14.832031 143.261719 19.289062 143.261719 24.765625 L 143.261719 29.695312 C 143.261719 29.894531 143.289062 30.082031 143.339844 30.261719 " fill-opacity="1" fill-rule="nonzero"/></g></svg>